<svg id="svg" version="1.1" xmlns="http://www.w3.org/2000/svg" xmlns:xlink="http://www.w3.org/1999/xlink" width="400" height="300" viewBox="0, 0, 400,300"><g id="svgg"><path id="path0" d="M201.950 12.398 C 201.868 12.480,200.450 12.699,198.800 12.883 C 193.026 13.529,186.889 14.529,183.946 15.302 C 183.368 15.454,181.478 15.931,179.745 16.362 C 178.012 16.793,176.189 17.270,175.694 17.421 C 173.643 18.048,168.143 19.867,167.517 20.126 C 167.146 20.279,166.538 20.526,166.167 20.675 C 165.795 20.823,164.998 21.160,164.396 21.425 C 163.793 21.689,163.223 21.905,163.129 21.905 C 162.669 21.905,151.204 27.452,148.987 28.747 C 144.046 31.634,140.924 33.635,136.984 36.441 C 126.949 43.589,115.152 54.804,107.287 64.673 C 106.632 65.495,106.018 66.234,105.921 66.317 C 105.762 66.453,103.177 69.934,101.575 72.168 C 100.525 73.634,95.424 81.597,95.424 81.772 C 95.424 81.860,95.106 82.436,94.718 83.052 C 93.101 85.614,89.347 93.498,87.612 97.974 C 86.589 100.615,85.646 103.046,85.518 103.376 C 85.390 103.706,85.085 104.651,84.842 105.476 L 84.399 106.977 207.891 107.052 C 275.811 107.094,331.450 107.060,331.533 106.977 C 331.616 106.894,331.537 106.522,331.357 106.151 C 331.178 105.780,330.672 104.464,330.233 103.226 C 329.793 101.988,329.292 100.638,329.118 100.225 C 328.944 99.812,328.667 99.137,328.502 98.725 C 326.918 94.766,325.612 91.879,323.547 87.772 C 322.634 85.956,321.740 84.168,321.559 83.798 C 321.378 83.428,321.129 83.124,321.005 83.123 C 320.881 83.122,320.780 82.851,320.780 82.521 C 320.780 82.191,320.645 81.920,320.480 81.920 C 320.315 81.920,320.180 81.783,320.180 81.614 C 320.180 81.250,318.628 78.814,318.305 78.670 C 318.181 78.615,318.080 78.443,318.080 78.288 C 318.080 77.942,316.515 75.507,316.204 75.369 C 316.080 75.314,315.979 75.078,315.979 74.844 C 315.979 74.610,315.844 74.419,315.679 74.419 C 315.514 74.419,315.379 74.285,315.379 74.121 C 315.379 73.958,314.904 73.181,314.325 72.396 C 313.745 71.610,313.171 70.833,313.049 70.667 C 311.397 68.424,311.035 67.945,310.892 67.817 C 310.800 67.734,310.163 66.912,309.477 65.989 C 308.791 65.067,308.049 64.121,307.828 63.888 C 307.608 63.656,306.887 62.791,306.227 61.967 C 302.731 57.605,292.310 47.187,287.916 43.662 C 287.094 43.003,286.219 42.258,285.971 42.008 C 285.724 41.758,284.981 41.157,284.321 40.673 C 283.661 40.188,283.053 39.710,282.971 39.611 C 282.888 39.512,281.673 38.632,280.270 37.656 C 278.867 36.680,277.674 35.775,277.619 35.645 C 277.564 35.515,277.360 35.409,277.166 35.409 C 276.972 35.409,276.449 35.071,276.004 34.659 C 275.559 34.246,275.126 33.908,275.042 33.908 C 274.958 33.908,273.738 33.166,272.331 32.258 C 270.924 31.350,269.691 30.608,269.591 30.608 C 269.492 30.608,269.052 30.354,268.613 30.044 C 267.143 29.004,259.573 25.075,256.189 23.597 C 255.570 23.327,254.625 22.914,254.089 22.679 C 253.552 22.444,252.371 21.968,251.463 21.621 C 249.675 20.936,248.607 20.485,247.791 20.070 C 247.504 19.924,247.064 19.805,246.812 19.805 C 246.560 19.805,246.119 19.682,245.832 19.531 C 245.311 19.257,241.904 18.144,240.210 17.694 C 230.693 15.168,228.489 14.699,222.056 13.826 C 220.653 13.636,219.261 13.407,218.964 13.317 C 217.397 12.842,202.321 12.028,201.950 12.398 M79.681 126.596 C 79.408 127.456,78.396 136.333,78.274 138.935 L 78.197 140.585 207.927 140.661 L 337.658 140.737 337.476 138.111 C 337.297 135.516,336.891 131.484,336.457 127.982 L 336.234 126.182 208.047 126.106 C 82.693 126.032,79.857 126.043,79.681 126.596 M78.144 160.615 C 78.228 161.152,78.374 162.671,78.469 163.991 C 78.668 166.735,79.100 170.108,79.575 172.619 L 79.902 174.344 208.068 174.269 L 336.234 174.194 336.449 172.243 C 336.568 171.170,336.805 169.077,336.976 167.592 C 337.492 163.118,337.754 159.910,337.615 159.771 C 337.543 159.699,279.099 159.640,207.738 159.640 L 77.992 159.640 78.144 160.615 M84.548 193.422 C 84.321 193.648,86.061 198.639,87.783 202.701 C 87.993 203.196,88.525 204.479,88.966 205.551 C 96.330 223.489,112.511 244.450,129.459 258.006 C 131.452 259.600,133.218 261.015,133.383 261.149 C 136.057 263.327,145.457 269.546,148.687 271.274 C 150.008 271.981,151.223 272.660,151.388 272.783 C 152.220 273.405,158.765 276.532,162.341 278.017 C 163.413 278.462,164.696 279.005,165.191 279.222 C 166.930 279.986,172.573 281.910,175.694 282.803 C 176.684 283.087,177.832 283.427,178.245 283.560 C 179.491 283.961,181.310 284.428,182.896 284.755 C 183.721 284.926,185.274 285.264,186.347 285.507 C 187.419 285.751,190.053 286.216,192.198 286.541 C 194.344 286.865,197.247 287.306,198.650 287.519 C 201.867 288.008,212.277 287.992,215.904 287.492 C 218.824 287.090,225.574 286.037,227.757 285.643 C 229.035 285.412,229.745 285.269,233.308 284.523 C 234.134 284.350,235.619 283.983,236.609 283.706 C 237.599 283.430,238.783 283.135,239.238 283.052 C 239.694 282.969,240.141 282.782,240.231 282.636 C 240.322 282.490,240.676 282.371,241.018 282.371 C 241.545 282.371,246.367 280.795,248.312 279.986 C 248.642 279.849,250.195 279.236,251.763 278.624 C 255.875 277.018,265.919 272.238,266.117 271.793 C 266.172 271.669,266.347 271.568,266.506 271.568 C 266.665 271.568,267.534 271.095,268.437 270.518 C 269.340 269.940,270.150 269.467,270.237 269.467 C 270.323 269.467,272.150 268.311,274.297 266.898 C 279.516 263.462,285.515 258.927,290.149 254.914 C 291.711 253.561,297.797 247.674,299.887 245.494 C 302.775 242.481,302.818 242.434,304.876 240.060 C 305.949 238.822,306.895 237.742,306.978 237.659 C 307.062 237.577,307.487 237.037,307.923 236.459 C 308.359 235.881,308.968 235.139,309.277 234.809 C 309.585 234.479,310.505 233.263,311.322 232.108 C 312.943 229.814,314.620 227.511,315.078 226.950 C 315.238 226.753,315.652 226.089,315.997 225.474 C 316.343 224.859,316.953 223.926,317.353 223.402 C 317.752 222.878,318.080 222.293,318.080 222.102 C 318.080 221.911,318.215 221.755,318.380 221.755 C 318.545 221.755,318.680 221.618,318.680 221.449 C 318.680 221.281,319.041 220.572,319.482 219.874 C 320.254 218.653,322.032 215.430,322.707 214.031 C 322.885 213.661,323.132 213.357,323.256 213.356 C 323.380 213.354,323.479 213.185,323.477 212.978 C 323.475 212.772,324.066 211.388,324.791 209.902 C 327.599 204.141,328.501 202.024,330.225 197.149 C 330.662 195.911,331.147 194.664,331.301 194.378 C 331.456 194.091,331.583 193.720,331.583 193.552 C 331.583 193.195,288.826 193.176,284.771 193.532 C 283.100 193.678,282.695 193.772,283.596 193.802 C 284.352 193.828,285.047 193.924,285.140 194.017 C 285.293 194.170,281.205 200.459,278.522 204.201 C 275.280 208.722,264.158 220.030,261.436 221.574 C 261.175 221.722,260.613 222.148,260.188 222.521 C 258.306 224.170,250.384 229.217,247.112 230.852 C 239.777 234.517,230.817 237.432,223.406 238.565 C 216.516 239.619,214.925 239.741,208.102 239.744 C 194.056 239.750,184.260 237.807,172.243 232.630 C 170.292 231.790,165.407 229.306,164.175 228.529 C 163.503 228.104,162.888 227.757,162.808 227.757 C 162.729 227.757,161.505 226.947,160.090 225.956 C 158.675 224.966,157.444 224.156,157.355 224.156 C 156.841 224.156,148.739 217.186,145.686 214.118 C 139.879 208.283,136.092 203.472,131.317 195.865 C 130.344 194.315,130.285 194.109,130.756 193.924 C 131.140 193.773,130.957 193.658,130.083 193.500 C 128.665 193.244,84.801 193.168,84.548 193.422 " stroke="none" fill="#2d2453" fill-rule="evenodd"></path><path id="path1" d="M206.236 12.224 C 207.025 12.286,208.240 12.285,208.936 12.222 C 209.633 12.159,208.987 12.109,207.502 12.110 C 206.017 12.110,205.447 12.162,206.236 12.224 M198.650 12.603 C 197.422 12.794,197.395 12.815,198.350 12.836 C 198.927 12.848,200.008 12.751,200.750 12.618 C 202.549 12.298,200.696 12.285,198.650 12.603 M212.003 12.620 C 212.663 12.757,214.081 12.858,215.154 12.846 L 217.104 12.823 215.604 12.589 C 213.393 12.245,210.317 12.272,212.003 12.620 M194.299 13.203 L 193.398 13.432 194.299 13.438 C 194.794 13.441,195.536 13.335,195.949 13.203 L 196.699 12.963 195.949 12.969 C 195.536 12.972,194.794 13.077,194.299 13.203 M219.655 13.383 C 221.058 13.610,222.956 13.932,223.874 14.099 C 224.792 14.267,225.939 14.389,226.425 14.371 C 227.118 14.345,227.017 14.280,225.956 14.070 C 223.488 13.579,218.660 12.903,217.877 12.937 C 217.452 12.956,218.252 13.157,219.655 13.383 M227.757 14.704 C 228.005 14.864,228.680 14.983,229.257 14.969 C 230.220 14.946,230.245 14.924,229.557 14.704 C 228.416 14.338,227.191 14.338,227.757 14.704 M230.908 15.287 C 231.430 15.499,237.944 17.161,240.060 17.623 C 240.473 17.713,240.719 17.688,240.608 17.568 C 240.354 17.294,231.509 14.996,230.816 15.024 C 230.404 15.041,230.422 15.091,230.908 15.287 M240.960 17.817 C 240.960 17.879,241.939 18.229,243.136 18.595 C 244.332 18.962,245.602 19.399,245.957 19.568 C 246.312 19.737,246.764 19.821,246.962 19.755 C 247.159 19.689,246.036 19.201,244.467 18.670 C 241.763 17.755,240.960 17.560,240.960 17.817 M249.227 20.656 C 249.384 20.793,250.188 21.151,251.013 21.450 C 251.838 21.749,253.092 22.261,253.800 22.588 C 254.508 22.915,255.148 23.122,255.222 23.047 C 255.297 22.973,254.313 22.472,253.035 21.934 C 251.758 21.396,250.478 20.832,250.192 20.681 C 249.531 20.331,248.838 20.313,249.227 20.656 M255.814 23.406 C 255.916 23.571,256.123 23.706,256.274 23.706 C 256.425 23.706,257.520 24.179,258.707 24.756 C 259.894 25.334,260.924 25.747,260.997 25.675 C 261.114 25.558,256.120 23.106,255.766 23.106 C 255.691 23.106,255.712 23.241,255.814 23.406 M262.716 26.632 C 263.210 27.127,265.927 28.547,266.082 28.391 C 266.161 28.312,265.504 27.868,264.621 27.404 C 262.646 26.366,262.316 26.232,262.716 26.632 M266.467 28.612 C 266.467 28.736,269.444 30.608,269.640 30.608 C 269.713 30.608,270.935 31.357,272.355 32.274 C 273.776 33.190,274.994 33.883,275.063 33.814 C 275.193 33.684,268.973 29.712,268.619 29.701 C 268.508 29.697,268.080 29.430,267.667 29.107 C 266.975 28.566,266.467 28.356,266.467 28.612 M140.020 34.055 C 139.214 34.613,138.403 35.232,138.219 35.431 C 138.035 35.631,138.728 35.229,139.760 34.540 C 140.791 33.850,141.635 33.223,141.635 33.147 C 141.635 32.941,141.607 32.957,140.020 34.055 M275.469 34.068 C 275.469 34.366,276.774 35.388,277.169 35.399 C 277.362 35.404,277.564 35.515,277.619 35.645 C 277.674 35.775,278.867 36.663,280.270 37.619 C 281.673 38.575,282.373 38.958,281.826 38.470 C 280.545 37.328,275.469 33.813,275.469 34.068 M135.484 37.233 C 133.606 38.653,133.504 38.940,135.334 37.655 C 136.242 37.018,137.041 36.454,137.109 36.403 C 137.178 36.351,137.111 36.313,136.959 36.317 C 136.808 36.322,136.144 36.734,135.484 37.233 M282.977 39.510 C 282.984 39.769,285.371 41.560,285.371 41.305 C 285.371 41.226,284.831 40.733,284.171 40.210 C 283.511 39.687,282.974 39.372,282.977 39.510 M285.671 41.530 C 285.671 41.806,286.022 42.139,287.917 43.661 C 292.326 47.202,302.735 57.609,306.227 61.967 C 306.887 62.791,307.608 63.656,307.828 63.888 C 308.049 64.121,308.791 65.067,309.477 65.989 C 310.163 66.912,310.800 67.734,310.892 67.817 C 311.035 67.945,311.397 68.424,313.049 70.667 C 313.171 70.833,313.745 71.610,314.325 72.396 C 314.904 73.181,315.379 73.958,315.379 74.121 C 315.379 74.285,315.514 74.419,315.679 74.419 C 315.844 74.419,315.979 74.610,315.979 74.844 C 315.979 75.078,316.080 75.314,316.204 75.369 C 316.515 75.507,318.080 77.942,318.080 78.288 C 318.080 78.443,318.181 78.615,318.305 78.670 C 318.628 78.814,320.180 81.250,320.180 81.614 C 320.180 81.783,320.320 81.920,320.491 81.920 C 320.948 81.920,320.530 81.213,316.409 75.019 C 309.218 64.210,300.392 54.161,290.530 45.555 C 288.601 43.871,286.718 42.226,286.347 41.900 C 285.975 41.573,285.671 41.406,285.671 41.530 M127.963 43.286 L 127.082 44.261 128.057 43.380 C 128.966 42.558,129.170 42.311,128.938 42.311 C 128.887 42.311,128.448 42.749,127.963 43.286 M125.267 45.686 L 124.081 46.962 125.356 45.776 C 126.542 44.672,126.770 44.411,126.543 44.411 C 126.493 44.411,125.920 44.985,125.267 45.686 M122.120 48.537 L 120.480 50.263 122.206 48.622 C 123.809 47.099,124.068 46.812,123.846 46.812 C 123.799 46.812,123.022 47.588,122.120 48.537 M114.312 56.339 L 113.278 57.464 114.404 56.430 C 115.023 55.861,115.529 55.355,115.529 55.305 C 115.529 55.076,115.275 55.292,114.312 56.339 M109.228 61.964 C 108.841 62.376,108.582 62.764,108.651 62.825 C 108.720 62.886,109.091 62.549,109.475 62.076 C 110.334 61.017,110.183 60.948,109.228 61.964 M107.127 64.516 C 106.604 65.176,106.244 65.716,106.326 65.716 C 106.409 65.716,106.904 65.176,107.427 64.516 C 107.950 63.856,108.310 63.316,108.227 63.316 C 108.145 63.316,107.650 63.856,107.127 64.516 M98.190 76.894 C 97.095 78.512,96.858 78.920,97.014 78.920 C 97.083 78.920,97.632 78.177,98.235 77.269 C 98.838 76.362,99.269 75.619,99.192 75.619 C 99.116 75.619,98.665 76.193,98.190 76.894 M320.780 82.604 C 320.780 82.888,320.881 83.122,321.005 83.123 C 321.129 83.124,321.378 83.428,321.559 83.798 C 321.740 84.168,322.634 85.956,323.547 87.772 C 324.460 89.587,325.494 91.714,325.844 92.498 C 326.604 94.197,327.620 96.540,327.958 97.374 C 328.092 97.704,328.373 98.380,328.582 98.875 C 329.221 100.387,330.686 104.367,331.166 105.894 C 331.238 106.124,331.361 106.248,331.439 106.170 C 331.643 105.966,329.354 99.579,327.857 96.174 C 325.986 91.918,325.222 90.295,323.576 87.076 C 321.381 82.784,320.780 81.823,320.780 82.604 M91.973 87.622 C 91.227 89.107,90.684 90.323,90.767 90.323 C 90.849 90.323,91.527 89.107,92.273 87.622 C 93.019 86.137,93.562 84.921,93.479 84.921 C 93.397 84.921,92.719 86.137,91.973 87.622 M88.871 94.086 C 88.368 95.190,88.464 95.425,89.008 94.422 C 89.262 93.954,89.413 93.514,89.345 93.446 C 89.276 93.377,89.063 93.665,88.871 94.086 M84.229 106.545 C 84.140 106.885,84.226 107.224,84.419 107.297 C 85.392 107.666,331.685 107.265,331.760 106.894 C 331.803 106.684,331.769 106.650,331.685 106.819 C 331.343 107.509,84.354 107.217,84.534 106.527 C 84.621 106.197,84.624 105.926,84.541 105.926 C 84.459 105.926,84.318 106.205,84.229 106.545 M79.720 125.931 C 79.610 126.042,79.522 126.278,79.524 126.457 C 79.527 126.649,79.626 126.628,79.768 126.406 C 79.958 126.106,105.779 126.045,208.195 126.106 C 278.699 126.147,336.384 126.080,336.384 125.956 C 336.384 125.679,79.998 125.654,79.720 125.931 M336.441 127.832 C 336.433 128.575,336.542 129.452,336.684 129.782 C 337.021 130.567,337.021 128.706,336.684 127.382 C 336.477 126.569,336.454 126.613,336.441 127.832 M78.989 130.233 C 78.989 130.810,79.051 131.047,79.127 130.758 C 79.202 130.469,79.202 129.996,79.127 129.707 C 79.051 129.419,78.989 129.655,78.989 130.233 M337.140 132.783 C 337.207 134.104,337.351 136.433,337.460 137.961 L 337.658 140.738 207.839 140.662 C 136.438 140.620,78.020 140.686,78.020 140.810 C 78.020 141.233,337.882 141.083,337.907 140.660 C 337.992 139.261,337.772 135.930,337.426 133.383 L 337.018 130.383 337.140 132.783 M78.689 132.333 C 78.689 132.911,78.751 133.147,78.827 132.858 C 78.902 132.569,78.902 132.097,78.827 131.808 C 78.751 131.519,78.689 131.755,78.689 132.333 M78.401 135.034 C 78.401 135.776,78.460 136.080,78.531 135.709 C 78.603 135.338,78.603 134.730,78.531 134.359 C 78.460 133.987,78.401 134.291,78.401 135.034 M78.101 138.935 C 78.101 139.677,78.160 139.981,78.231 139.610 C 78.303 139.239,78.303 138.631,78.231 138.260 C 78.160 137.888,78.101 138.192,78.101 138.935 M207.930 159.639 L 337.690 159.790 337.619 161.758 C 337.579 162.840,337.424 164.258,337.273 164.909 C 337.122 165.559,337.011 166.902,337.026 167.892 C 337.060 170.086,337.751 165.261,337.930 161.590 L 338.032 159.490 208.101 159.489 L 78.170 159.488 207.930 159.639 M78.089 161.440 C 78.089 162.018,78.151 162.254,78.226 161.965 C 78.302 161.677,78.302 161.204,78.226 160.915 C 78.151 160.626,78.089 160.863,78.089 161.440 M78.395 165.191 C 78.399 165.851,78.460 166.086,78.532 165.713 C 78.604 165.340,78.601 164.800,78.526 164.513 C 78.451 164.226,78.392 164.531,78.395 165.191 M78.989 170.143 C 78.989 170.720,79.051 170.956,79.127 170.668 C 79.202 170.379,79.202 169.906,79.127 169.617 C 79.051 169.329,78.989 169.565,78.989 170.143 M336.600 170.242 C 336.481 170.544,336.400 171.490,336.419 172.343 L 336.454 173.893 336.727 172.245 C 337.033 170.402,336.964 169.318,336.600 170.242 M79.410 172.991 C 79.500 173.650,79.638 174.291,79.715 174.416 C 79.898 174.712,336.005 174.714,336.188 174.419 C 336.264 174.295,278.632 174.228,208.116 174.269 L 79.906 174.345 79.575 173.069 L 79.245 171.793 79.410 172.991 M84.321 193.173 C 84.321 193.297,94.010 193.358,105.851 193.308 C 127.181 193.218,131.757 193.325,130.751 193.888 C 129.435 194.625,138.480 206.876,145.686 214.118 C 148.739 217.186,156.841 224.156,157.355 224.156 C 157.444 224.156,158.675 224.966,160.090 225.956 C 161.505 226.947,162.729 227.757,162.808 227.757 C 162.888 227.757,163.503 228.104,164.175 228.529 C 165.407 229.306,170.292 231.790,172.243 232.630 C 184.260 237.807,194.056 239.750,208.102 239.744 C 214.925 239.741,216.516 239.619,223.406 238.565 C 230.817 237.432,239.777 234.517,247.112 230.852 C 250.384 229.217,258.306 224.170,260.188 222.521 C 260.613 222.148,261.175 221.722,261.436 221.574 C 264.158 220.030,275.280 208.722,278.522 204.201 C 281.205 200.459,285.293 194.170,285.140 194.017 C 285.047 193.924,284.352 193.828,283.596 193.802 C 282.695 193.772,283.100 193.678,284.771 193.532 C 288.853 193.173,331.507 193.195,331.685 193.556 C 331.769 193.725,331.803 193.691,331.760 193.481 C 331.673 193.051,84.321 192.743,84.321 193.173 M331.166 194.481 C 330.897 195.336,329.406 199.461,328.736 201.200 C 327.948 203.247,326.719 205.952,324.747 209.980 C 323.999 211.509,323.453 212.825,323.533 212.905 C 323.660 213.033,326.436 207.422,328.210 203.451 C 329.254 201.116,331.619 194.385,331.455 194.220 C 331.368 194.134,331.238 194.251,331.166 194.481 M88.543 205.101 C 88.543 205.266,88.736 205.739,88.972 206.152 C 89.208 206.564,89.401 206.767,89.401 206.602 C 89.401 206.437,89.208 205.964,88.972 205.551 C 88.736 205.139,88.543 204.936,88.543 205.101 M322.707 214.031 C 322.032 215.430,320.254 218.653,319.482 219.874 C 319.041 220.572,318.680 221.281,318.680 221.449 C 318.680 221.618,318.545 221.755,318.380 221.755 C 318.215 221.755,318.080 221.911,318.080 222.102 C 318.080 222.293,317.752 222.878,317.353 223.402 C 316.953 223.926,316.343 224.859,315.997 225.474 C 315.652 226.089,315.238 226.753,315.078 226.950 C 314.620 227.511,312.943 229.814,311.322 232.108 C 310.505 233.263,309.585 234.479,309.277 234.809 C 308.968 235.139,308.359 235.881,307.923 236.459 C 307.487 237.037,307.062 237.577,306.978 237.659 C 306.895 237.742,305.949 238.822,304.876 240.060 C 303.803 241.297,302.656 242.595,302.326 242.943 C 294.322 251.384,289.430 255.839,282.011 261.448 C 278.543 264.069,270.618 269.467,270.237 269.467 C 270.150 269.467,269.340 269.940,268.437 270.518 C 267.534 271.095,266.665 271.568,266.506 271.568 C 266.347 271.568,266.172 271.669,266.117 271.793 C 265.919 272.238,255.875 277.018,251.763 278.624 C 250.195 279.236,248.642 279.849,248.312 279.986 C 246.367 280.795,241.545 282.371,241.018 282.371 C 240.676 282.371,240.322 282.490,240.231 282.636 C 240.141 282.782,239.694 282.969,239.238 283.052 C 238.783 283.134,237.397 283.469,236.159 283.796 C 234.921 284.122,233.098 284.553,232.108 284.753 C 231.118 284.953,229.835 285.232,229.257 285.373 C 228.680 285.514,227.262 285.783,226.107 285.971 C 221.318 286.750,219.552 287.109,220.353 287.139 C 221.381 287.179,226.895 286.238,231.808 285.184 C 262.635 278.576,291.695 259.116,312.408 231.208 C 316.781 225.316,324.058 213.348,323.264 213.356 C 323.136 213.357,322.885 213.661,322.707 214.031 M93.323 215.154 C 93.660 215.814,94.003 216.354,94.086 216.354 C 94.168 216.354,93.960 215.814,93.623 215.154 C 93.287 214.494,92.944 213.953,92.861 213.953 C 92.779 213.953,92.987 214.494,93.323 215.154 M101.125 227.757 C 101.478 228.252,101.834 228.657,101.916 228.657 C 101.999 228.657,101.778 228.252,101.425 227.757 C 101.073 227.262,100.717 226.857,100.634 226.857 C 100.552 226.857,100.773 227.262,101.125 227.757 M103.226 230.758 C 103.578 231.253,103.934 231.658,104.017 231.658 C 104.099 231.658,103.878 231.253,103.526 230.758 C 103.173 230.263,102.817 229.857,102.735 229.857 C 102.652 229.857,102.873 230.263,103.226 230.758 M110.090 239.415 C 110.761 240.216,111.547 241.060,111.838 241.291 C 112.129 241.522,111.640 240.866,110.752 239.835 C 109.864 238.803,109.077 237.959,109.004 237.959 C 108.931 237.959,109.420 238.615,110.090 239.415 M115.379 245.161 C 116.525 246.317,117.531 247.262,117.613 247.262 C 117.696 247.262,116.825 246.317,115.679 245.161 C 114.532 244.006,113.527 243.061,113.444 243.061 C 113.362 243.061,114.232 244.006,115.379 245.161 M121.380 251.163 C 122.360 252.153,123.230 252.963,123.312 252.963 C 123.395 252.963,122.660 252.153,121.680 251.163 C 120.701 250.173,119.831 249.362,119.749 249.362 C 119.666 249.362,120.400 250.173,121.380 251.163 M129.006 257.865 C 129.444 258.412,131.133 259.698,131.133 259.486 C 131.133 259.419,130.559 258.909,129.857 258.352 C 129.156 257.794,128.773 257.575,129.006 257.865 M136.534 263.575 C 136.534 263.658,136.939 264.014,137.434 264.366 C 137.929 264.719,138.335 264.940,138.335 264.857 C 138.335 264.775,137.929 264.419,137.434 264.066 C 136.939 263.713,136.534 263.493,136.534 263.575 M140.435 266.330 C 140.435 266.413,141.549 267.195,142.911 268.068 C 145.863 269.962,146.402 270.274,145.986 269.847 C 145.543 269.391,140.435 266.155,140.435 266.330 M149.137 271.706 C 149.137 271.788,149.677 272.131,150.338 272.468 C 150.998 272.805,151.538 273.013,151.538 272.930 C 151.538 272.848,150.998 272.505,150.338 272.168 C 149.677 271.831,149.137 271.623,149.137 271.706 M151.838 273.208 C 151.838 273.291,152.513 273.700,153.338 274.119 C 154.164 274.537,154.839 274.811,154.839 274.729 C 154.839 274.646,154.164 274.237,153.338 273.818 C 152.513 273.400,151.838 273.126,151.838 273.208 M161.740 278.020 C 162.153 278.255,162.626 278.448,162.791 278.448 C 162.956 278.448,162.753 278.255,162.341 278.020 C 161.928 277.784,161.455 277.591,161.290 277.591 C 161.125 277.591,161.328 277.784,161.740 278.020 M168.602 280.732 C 169.157 280.973,169.697 281.166,169.802 281.160 C 170.192 281.138,168.474 280.291,168.042 280.292 C 167.794 280.293,168.046 280.491,168.602 280.732 M181.995 284.771 C 182.326 284.913,182.798 285.029,183.046 285.029 C 183.329 285.029,183.274 284.934,182.896 284.771 C 182.566 284.629,182.093 284.513,181.845 284.513 C 181.562 284.513,181.617 284.609,181.995 284.771 M183.971 285.181 C 184.040 285.242,184.636 285.374,185.296 285.474 C 186.133 285.602,186.315 285.575,185.896 285.385 C 185.320 285.124,183.713 284.954,183.971 285.181 M192.498 286.872 C 192.993 286.998,193.736 287.101,194.149 287.101 C 194.818 287.101,194.802 287.076,193.998 286.872 C 193.503 286.746,192.761 286.643,192.348 286.643 C 191.679 286.643,191.695 286.667,192.498 286.872 M195.674 287.282 C 195.743 287.343,196.677 287.467,197.749 287.558 C 198.978 287.663,199.367 287.635,198.800 287.483 C 197.883 287.238,195.446 287.081,195.674 287.282 M215.754 287.472 L 214.704 287.693 215.904 287.715 C 216.564 287.727,217.644 287.626,218.305 287.489 L 219.505 287.241 218.155 287.246 C 217.412 287.249,216.332 287.350,215.754 287.472 M201.800 288.114 C 204.162 288.367,210.623 288.361,212.903 288.104 C 213.899 287.992,211.417 287.906,207.352 287.912 C 203.308 287.917,200.810 288.009,201.800 288.114 " stroke="none" fill="#463684" fill-rule="evenodd"></path><path id="path2" d="M183.346 12.760 C 169.395 14.389,158.143 17.233,146.887 21.972 C 105.794 39.275,73.501 77.740,64.780 119.769 C 61.170 137.167,60.841 159.214,63.942 175.994 C 65.466 184.245,68.594 195.665,70.518 200.000 C 70.664 200.330,71.522 202.356,72.424 204.501 C 79.913 222.313,95.620 243.633,109.638 255.012 C 110.485 255.700,112.258 257.152,113.578 258.239 C 117.790 261.707,125.198 267.028,128.882 269.230 C 149.170 281.357,171.215 287.817,193.848 288.266 C 200.960 288.407,202.032 288.126,196.849 287.480 C 171.120 284.274,148.074 273.974,127.082 256.298 C 100.690 234.076,82.993 202.634,79.096 171.043 C 76.879 153.072,77.334 134.609,80.327 121.080 C 80.582 119.925,80.898 118.440,81.029 117.779 C 82.776 108.972,89.264 92.000,93.991 83.871 C 101.029 71.769,107.186 63.665,116.872 53.751 C 140.385 29.688,165.241 17.117,198.200 12.622 C 201.210 12.211,186.905 12.344,183.346 12.760 " stroke="none" fill="#f89509" fill-rule="evenodd"></path><path id="path3" d="M0.000 150.038 L 0.000 300.075 200.000 300.075 L 400.000 300.075 400.000 150.038 L 400.000 0.000 200.000 0.000 L 0.000 0.000 0.000 150.038 M213.053 11.972 C 217.669 12.335,220.746 12.711,224.456 13.363 C 229.078 14.176,230.072 14.374,233.908 15.243 C 236.548 15.840,240.239 16.858,240.731 17.123 C 241.018 17.278,241.584 17.404,241.989 17.404 C 242.394 17.404,242.809 17.539,242.911 17.704 C 243.013 17.869,243.322 18.005,243.597 18.005 C 244.225 18.005,248.791 19.655,250.334 20.440 C 250.620 20.586,250.988 20.705,251.151 20.705 C 251.313 20.705,252.227 21.059,253.180 21.491 C 254.134 21.924,255.386 22.480,255.964 22.727 C 260.319 24.588,270.670 30.088,270.918 30.672 C 270.973 30.801,271.139 30.908,271.287 30.908 C 271.553 30.908,274.879 32.943,275.169 33.283 C 275.251 33.380,275.671 33.640,276.101 33.862 C 280.098 35.917,291.817 45.783,299.326 53.413 C 302.794 56.937,304.458 58.718,305.869 60.417 C 306.396 61.051,307.140 61.929,307.523 62.368 C 307.907 62.807,308.581 63.638,309.022 64.216 C 309.463 64.794,309.912 65.334,310.019 65.416 C 310.126 65.499,311.305 67.052,312.639 68.867 C 313.974 70.683,315.204 72.331,315.372 72.530 C 315.541 72.730,315.679 72.972,315.679 73.069 C 315.679 73.165,316.017 73.609,316.429 74.054 C 316.842 74.499,317.179 75.033,317.179 75.241 C 317.179 75.449,317.314 75.619,317.479 75.619 C 317.644 75.619,317.779 75.757,317.779 75.925 C 317.779 76.197,319.182 78.532,319.578 78.920 C 319.662 79.002,319.933 79.475,320.180 79.970 C 320.427 80.465,320.697 80.938,320.780 81.020 C 321.000 81.240,322.228 83.407,322.819 84.621 C 323.101 85.199,323.432 85.716,323.556 85.771 C 323.680 85.826,323.781 86.119,323.781 86.422 C 323.781 86.724,323.882 87.017,324.006 87.072 C 324.282 87.195,325.881 90.462,325.881 90.904 C 325.881 91.079,326.017 91.223,326.182 91.223 C 326.347 91.223,326.482 91.400,326.482 91.617 C 326.482 91.833,326.734 92.542,327.042 93.192 C 327.653 94.479,328.507 96.424,328.878 97.374 C 329.007 97.704,329.476 98.920,329.921 100.075 C 330.366 101.230,330.855 102.410,331.007 102.697 C 331.159 102.983,331.283 103.424,331.283 103.676 C 331.283 103.928,331.410 104.369,331.565 104.655 C 331.845 105.174,332.284 106.705,332.316 107.277 C 332.327 107.476,290.699 107.627,208.282 107.727 L 84.231 107.877 83.813 109.077 C 82.523 112.781,79.806 124.340,80.053 125.079 C 80.142 125.348,110.438 125.431,208.376 125.431 L 336.583 125.431 336.919 126.107 C 337.104 126.478,337.315 127.457,337.387 128.282 C 337.459 129.107,337.732 131.808,337.993 134.284 C 338.493 139.029,338.568 139.960,338.516 140.810 C 338.486 141.309,332.012 141.338,208.327 141.410 L 78.170 141.485 78.083 149.988 C 78.002 157.946,78.031 158.498,78.533 158.622 C 78.828 158.695,137.376 158.785,208.638 158.822 C 321.569 158.881,338.241 158.946,338.476 159.326 C 338.624 159.565,338.682 160.106,338.605 160.526 C 338.529 160.946,338.255 163.248,337.997 165.641 C 337.293 172.170,337.276 172.318,337.112 173.359 C 337.029 173.890,336.754 174.531,336.501 174.784 C 336.089 175.196,322.604 175.244,207.959 175.244 L 79.876 175.244 80.131 176.219 C 80.271 176.755,80.608 178.342,80.880 179.745 C 81.419 182.522,82.413 186.866,82.837 188.297 C 82.984 188.792,83.316 189.890,83.574 190.736 L 84.045 192.274 130.169 192.505 C 155.538 192.631,211.140 192.654,253.730 192.554 C 296.319 192.455,331.462 192.451,331.824 192.546 C 332.500 192.722,332.731 193.660,332.183 193.998 C 332.018 194.101,331.883 194.506,331.883 194.899 C 331.883 195.292,331.748 195.697,331.583 195.799 C 331.418 195.901,331.283 196.287,331.283 196.657 C 331.283 197.027,331.175 197.458,331.044 197.614 C 330.913 197.771,330.627 198.440,330.409 199.100 C 330.192 199.760,329.813 200.773,329.567 201.350 C 329.322 201.928,329.011 202.671,328.877 203.001 C 327.798 205.648,326.865 207.625,324.415 212.453 C 322.866 215.506,321.448 218.307,321.264 218.677 C 321.080 219.047,320.829 219.351,320.705 219.352 C 320.581 219.354,320.480 219.496,320.480 219.669 C 320.480 219.842,320.008 220.723,319.430 221.626 C 318.852 222.529,318.380 223.400,318.380 223.562 C 318.380 223.724,318.245 223.856,318.080 223.856 C 317.914 223.856,317.779 224.059,317.779 224.306 C 317.779 224.554,317.678 224.759,317.554 224.762 C 317.431 224.765,316.930 225.441,316.442 226.263 C 315.954 227.084,315.448 227.757,315.317 227.757 C 315.186 227.757,315.079 227.901,315.079 228.077 C 315.079 228.353,313.745 230.325,313.266 230.758 C 313.174 230.840,312.775 231.380,312.378 231.958 C 311.981 232.536,311.282 233.481,310.824 234.059 C 306.084 240.040,303.796 242.613,298.275 248.171 C 293.018 253.462,291.004 255.286,285.643 259.617 C 282.242 262.364,281.397 263.012,281.054 263.136 C 280.870 263.202,280.653 263.348,280.570 263.462 C 280.263 263.883,272.503 269.167,272.192 269.167 C 272.014 269.167,271.868 269.302,271.868 269.467 C 271.868 269.632,271.726 269.767,271.553 269.767 C 271.381 269.767,270.500 270.240,269.597 270.818 C 268.694 271.395,267.755 271.868,267.511 271.868 C 267.267 271.868,267.067 271.973,267.067 272.102 C 267.067 272.230,265.075 273.327,262.641 274.540 C 260.206 275.752,257.980 276.862,257.693 277.007 C 257.407 277.151,256.968 277.269,256.718 277.269 C 256.468 277.269,256.264 277.404,256.264 277.569 C 256.264 277.734,256.133 277.869,255.972 277.869 C 255.699 277.869,252.857 279.082,251.692 279.696 C 251.405 279.847,250.899 279.970,250.567 279.970 C 250.234 279.970,249.962 280.089,249.962 280.235 C 249.962 280.381,249.659 280.567,249.287 280.649 C 248.415 280.841,244.866 282.065,244.190 282.407 C 243.904 282.552,243.463 282.671,243.211 282.671 C 242.959 282.671,242.518 282.794,242.231 282.945 C 241.667 283.242,237.651 284.407,235.709 284.838 C 235.049 284.984,233.935 285.232,233.233 285.388 C 213.708 289.731,191.911 290.208,173.443 286.698 C 170.359 286.112,169.516 285.935,164.891 284.903 C 164.083 284.722,161.462 283.961,156.189 282.376 C 154.369 281.829,153.084 281.376,151.988 280.894 C 151.658 280.749,150.915 280.468,150.338 280.270 C 148.460 279.625,145.512 278.387,141.689 276.637 C 140.646 276.160,139.722 275.769,139.635 275.769 C 139.549 275.769,139.119 275.522,138.681 275.221 C 138.243 274.920,137.412 274.490,136.834 274.267 C 136.257 274.043,135.072 273.411,134.203 272.864 C 133.333 272.316,132.568 271.868,132.502 271.868 C 132.180 271.868,124.514 267.144,124.231 266.771 C 124.149 266.662,123.878 266.499,123.631 266.408 C 123.226 266.260,117.094 261.796,116.729 261.385 C 116.647 261.292,115.904 260.675,115.079 260.015 C 83.166 234.495,65.631 202.460,61.812 162.704 C 61.419 158.610,61.429 141.415,61.827 137.434 C 62.585 129.856,63.574 122.989,64.377 119.730 C 64.601 118.822,65.074 116.864,65.428 115.379 C 65.782 113.893,66.250 112.138,66.467 111.478 C 66.684 110.818,67.156 109.265,67.516 108.027 C 76.651 76.605,102.678 45.129,133.905 27.739 C 136.449 26.322,141.251 24.002,145.836 21.976 C 149.447 20.380,150.151 20.105,150.616 20.105 C 150.892 20.105,151.246 19.984,151.403 19.835 C 152.130 19.148,164.114 15.590,168.642 14.717 C 180.214 12.487,184.620 11.997,195.477 11.731 C 205.036 11.498,207.448 11.531,213.053 11.972 " stroke="none" fill="#fbfbfb" fill-rule="evenodd"></path><path id="path4" d="M195.477 11.731 C 184.620 11.997,180.214 12.487,168.642 14.717 C 164.114 15.590,152.130 19.148,151.403 19.835 C 151.246 19.984,150.892 20.105,150.616 20.105 C 150.151 20.105,149.447 20.380,145.836 21.976 C 141.251 24.002,136.449 26.322,133.905 27.739 C 102.678 45.129,76.651 76.605,67.516 108.027 C 67.156 109.265,66.684 110.818,66.467 111.478 C 66.250 112.138,65.782 113.893,65.428 115.379 C 65.074 116.864,64.601 118.822,64.377 119.730 C 63.574 122.989,62.585 129.856,61.827 137.434 C 61.429 141.415,61.419 158.610,61.812 162.704 C 65.139 197.344,77.543 223.660,102.170 248.325 C 107.109 253.272,110.605 256.438,115.079 260.015 C 115.904 260.675,116.647 261.292,116.729 261.385 C 117.094 261.796,123.226 266.260,123.631 266.408 C 123.878 266.499,124.149 266.662,124.231 266.771 C 124.514 267.144,132.180 271.868,132.502 271.868 C 132.568 271.868,133.333 272.316,134.203 272.864 C 135.072 273.411,136.257 274.043,136.834 274.267 C 137.412 274.490,138.243 274.920,138.681 275.221 C 139.119 275.522,139.549 275.769,139.635 275.769 C 139.722 275.769,140.646 276.160,141.689 276.637 C 145.512 278.387,148.460 279.625,150.338 280.270 C 150.915 280.468,151.658 280.749,151.988 280.894 C 153.084 281.376,154.369 281.829,156.189 282.376 C 161.462 283.961,164.083 284.722,164.891 284.903 C 167.632 285.514,168.460 285.697,169.617 285.942 C 179.904 288.127,188.162 288.927,200.450 288.927 C 213.082 288.927,221.321 288.037,233.233 285.388 C 233.935 285.232,235.049 284.984,235.709 284.838 C 237.651 284.407,241.667 283.242,242.231 282.945 C 242.518 282.794,242.959 282.671,243.211 282.671 C 243.463 282.671,243.904 282.552,244.190 282.407 C 244.866 282.065,248.415 280.841,249.287 280.649 C 249.659 280.567,249.962 280.381,249.962 280.235 C 249.962 280.089,250.234 279.970,250.567 279.970 C 250.899 279.970,251.405 279.847,251.692 279.696 C 252.857 279.082,255.699 277.869,255.972 277.869 C 256.133 277.869,256.264 277.734,256.264 277.569 C 256.264 277.404,256.468 277.269,256.718 277.269 C 256.968 277.269,257.407 277.151,257.693 277.007 C 257.980 276.862,260.206 275.752,262.641 274.540 C 265.075 273.327,267.067 272.230,267.067 272.102 C 267.067 271.973,267.267 271.868,267.511 271.868 C 267.755 271.868,268.694 271.395,269.597 270.818 C 270.500 270.240,271.381 269.767,271.553 269.767 C 271.726 269.767,271.868 269.632,271.868 269.467 C 271.868 269.302,272.014 269.167,272.192 269.167 C 272.503 269.167,280.263 263.883,280.570 263.462 C 280.653 263.348,280.870 263.202,281.054 263.136 C 281.397 263.012,282.242 262.364,285.643 259.617 C 291.004 255.286,293.018 253.462,298.275 248.171 C 303.796 242.613,306.084 240.040,310.824 234.059 C 311.282 233.481,311.981 232.536,312.378 231.958 C 312.775 231.380,313.174 230.840,313.266 230.758 C 313.745 230.325,315.079 228.353,315.079 228.077 C 315.079 227.901,315.186 227.757,315.317 227.757 C 315.448 227.757,315.954 227.084,316.442 226.263 C 316.930 225.441,317.431 224.765,317.554 224.762 C 317.678 224.759,317.779 224.554,317.779 224.306 C 317.779 224.059,317.914 223.856,318.080 223.856 C 318.245 223.856,318.380 223.724,318.380 223.562 C 318.380 223.400,318.852 222.529,319.430 221.626 C 320.008 220.723,320.480 219.842,320.480 219.669 C 320.480 219.496,320.581 219.354,320.705 219.352 C 320.829 219.351,321.080 219.047,321.264 218.677 C 321.448 218.307,322.866 215.506,324.415 212.453 C 326.865 207.625,327.798 205.648,328.877 203.001 C 329.011 202.671,329.322 201.928,329.567 201.350 C 329.813 200.773,330.192 199.760,330.409 199.100 C 330.627 198.440,330.913 197.771,331.044 197.614 C 331.175 197.458,331.283 197.027,331.283 196.657 C 331.283 196.287,331.418 195.901,331.583 195.799 C 331.748 195.697,331.883 195.292,331.883 194.899 C 331.883 194.506,332.018 194.101,332.183 193.998 C 332.731 193.660,332.500 192.722,331.824 192.546 C 331.462 192.451,296.319 192.455,253.730 192.554 C 211.140 192.654,155.538 192.631,130.169 192.505 L 84.045 192.274 83.574 190.736 C 83.316 189.890,82.984 188.792,82.837 188.297 C 82.413 186.866,81.419 182.522,80.880 179.745 C 80.608 178.342,80.271 176.755,80.131 176.219 L 79.876 175.244 207.959 175.244 C 322.604 175.244,336.089 175.196,336.501 174.784 C 336.754 174.531,337.029 173.890,337.112 173.359 C 337.276 172.318,337.293 172.170,337.997 165.641 C 338.255 163.248,338.529 160.946,338.605 160.526 C 338.682 160.106,338.624 159.565,338.476 159.326 C 338.241 158.946,321.569 158.881,208.638 158.822 C 137.376 158.785,78.828 158.695,78.533 158.622 C 78.031 158.498,78.002 157.946,78.083 149.988 L 78.170 141.485 208.327 141.410 C 332.012 141.338,338.486 141.309,338.516 140.810 C 338.568 139.960,338.493 139.029,337.993 134.284 C 337.732 131.808,337.459 129.107,337.387 128.282 C 337.315 127.457,337.104 126.478,336.919 126.107 L 336.583 125.431 208.376 125.431 C 110.438 125.431,80.142 125.348,80.053 125.079 C 79.806 124.340,82.523 112.781,83.813 109.077 L 84.231 107.877 208.282 107.727 C 290.699 107.627,332.327 107.476,332.316 107.277 C 332.284 106.705,331.845 105.174,331.565 104.655 C 331.410 104.369,331.283 103.928,331.283 103.676 C 331.283 103.424,331.159 102.983,331.007 102.697 C 330.855 102.410,330.366 101.230,329.921 100.075 C 329.476 98.920,329.007 97.704,328.878 97.374 C 328.507 96.424,327.653 94.479,327.042 93.192 C 326.734 92.542,326.482 91.833,326.482 91.617 C 326.482 91.400,326.347 91.223,326.182 91.223 C 326.017 91.223,325.881 91.079,325.881 90.904 C 325.881 90.462,324.282 87.195,324.006 87.072 C 323.882 87.017,323.781 86.724,323.781 86.422 C 323.781 86.119,323.680 85.826,323.556 85.771 C 323.432 85.716,323.101 85.199,322.819 84.621 C 322.228 83.407,321.000 81.240,320.780 81.020 C 320.697 80.938,320.427 80.465,320.180 79.970 C 319.933 79.475,319.662 79.002,319.578 78.920 C 319.182 78.532,317.779 76.197,317.779 75.925 C 317.779 75.757,317.644 75.619,317.479 75.619 C 317.314 75.619,317.179 75.449,317.179 75.241 C 317.179 75.033,316.842 74.499,316.429 74.054 C 316.017 73.609,315.679 73.165,315.679 73.069 C 315.679 72.972,315.541 72.730,315.372 72.530 C 315.204 72.331,313.974 70.683,312.639 68.867 C 311.305 67.052,310.126 65.499,310.019 65.416 C 309.912 65.334,309.463 64.794,309.022 64.216 C 308.581 63.638,307.907 62.807,307.523 62.368 C 307.140 61.929,306.396 61.051,305.869 60.417 C 300.069 53.437,290.371 44.408,281.535 37.762 C 278.977 35.838,276.532 34.083,276.101 33.862 C 275.671 33.640,275.251 33.380,275.169 33.283 C 274.879 32.943,271.553 30.908,271.287 30.908 C 271.139 30.908,270.973 30.801,270.918 30.672 C 270.670 30.088,260.319 24.588,255.964 22.727 C 255.386 22.480,254.134 21.924,253.180 21.491 C 252.227 21.059,251.313 20.705,251.151 20.705 C 250.988 20.705,250.620 20.586,250.334 20.440 C 248.791 19.655,244.225 18.005,243.597 18.005 C 243.322 18.005,243.013 17.869,242.911 17.704 C 242.809 17.539,242.394 17.404,241.989 17.404 C 241.584 17.404,241.018 17.278,240.731 17.123 C 240.239 16.858,236.548 15.840,233.908 15.243 C 231.403 14.675,229.964 14.368,228.657 14.120 C 216.561 11.830,210.193 11.372,195.477 11.731 M216.054 12.622 C 226.141 13.891,234.436 15.515,240.510 17.410 C 243.923 18.475,248.533 20.053,250.113 20.698 C 253.846 22.221,259.431 24.743,261.965 26.050 C 266.432 28.354,268.591 29.570,272.196 31.816 C 294.263 45.559,314.056 67.345,325.010 89.947 C 326.149 92.298,327.082 94.291,327.082 94.376 C 327.082 94.461,327.345 95.103,327.667 95.802 C 329.334 99.424,331.950 106.775,331.710 107.163 C 331.616 107.316,279.085 107.426,207.709 107.424 L 83.871 107.419 83.322 109.148 C 82.668 111.206,81.367 116.092,81.023 117.779 C 80.888 118.440,80.495 120.369,80.149 122.066 C 79.803 123.764,79.520 125.317,79.520 125.517 C 79.520 125.802,107.360 125.865,207.931 125.806 L 336.341 125.730 336.649 127.306 C 337.281 130.535,338.047 138.653,337.910 140.660 C 337.890 140.959,311.563 141.050,207.877 141.110 L 77.869 141.185 77.641 145.761 C 77.515 148.278,77.515 152.364,77.641 154.841 L 77.869 159.343 207.952 159.417 L 338.035 159.490 337.942 161.440 C 337.803 164.402,336.707 173.203,336.383 173.969 L 336.096 174.645 207.782 174.569 L 79.467 174.494 79.648 175.694 C 79.836 176.943,80.727 181.180,81.510 184.546 C 82.087 187.029,83.033 190.353,83.603 191.898 L 84.045 193.098 207.889 193.098 L 331.733 193.098 331.663 193.764 C 331.044 199.667,320.276 220.606,312.408 231.208 C 289.841 261.614,258.498 281.248,223.856 286.680 C 214.078 288.213,211.212 288.393,198.500 288.271 C 172.544 288.023,153.591 283.102,131.883 270.977 C 126.672 268.066,119.184 262.855,113.578 258.239 C 112.258 257.152,110.485 255.700,109.638 255.012 C 95.620 243.633,79.913 222.313,72.424 204.501 C 71.522 202.356,70.664 200.330,70.518 200.000 C 68.594 195.665,65.466 184.245,63.942 175.994 C 60.841 159.214,61.170 137.167,64.780 119.769 C 73.501 77.740,105.794 39.275,146.887 21.972 C 156.421 17.958,167.746 14.842,177.794 13.469 C 178.950 13.312,180.908 13.040,182.146 12.865 C 187.275 12.141,210.887 11.971,216.054 12.622 " stroke="none" fill="#c3b1a6" fill-rule="evenodd"></path></g></svg>